<?xml version="1.0" encoding="UTF-8"?>
<!-- Generated by Pixelmator Pro 3.2.3 -->
<svg width="1200" height="800" viewBox="0 0 1200 800" xmlns="http://www.w3.org/2000/svg" xmlns:xlink="http://www.w3.org/1999/xlink">
    <path id="Left-leg" fill="#c46b25" fill-rule="evenodd" stroke="none" d="M 100 587 C 100 587 134.95311 584.511841 157 653 C 225.344269 657.657837 244.694534 667.187012 322 635 C 399.67807 602.657837 392.163025 660.722168 364 674 C 333.871033 688.204712 274.59198 721.148315 171 708 C 163.822449 749.818726 138 738 138 738 C 138 738 86.645393 716.582214 77 624 C 77.964523 582.104675 100 587 100 587 Z"/>
    <path id="Right-leg" fill="#c46b25" fill-rule="evenodd" stroke="none" d="M 1135.691162 586.158936 C 1135.691162 586.158936 1100.991333 581.276794 1074.294067 648.089478 C 1005.79126 648.043762 985.832336 656.221863 910.919312 618.802917 C 835.645203 581.203613 839.155762 639.646912 866.340637 654.827148 C 895.423218 671.067017 952.300415 708.003052 1056.550659 701.998474 C 1060.839966 744.211365 1087.412964 734.193481 1087.412964 734.193481 C 1087.412964 734.193481 1140.116943 716.352295 1156.096436 624.650818 C 1158.010742 582.788147 1135.691162 586.158936 1135.691162 586.158936 Z"/>
    <path id="Left-arm" fill="#c46b25" fill-rule="evenodd" stroke="none" d="M 256 371 C 256 371 179.195053 343.510254 124 240 C 157.951355 207.256897 136.494995 179.216125 131 174 C 130.551712 173.574463 124.415146 165.70166 113 168 C 99.79863 170.657959 98.859215 171.679199 89 179 C 71.86808 149.307556 47.693001 150.382263 36 157 C 26.484468 162.385376 7.780151 175.641602 30 215 C -2.447587 233.315613 4.265376 246.439697 6 251 C 8.77582 258.297607 24.778418 275.990234 41 277 C 51.012096 277.62323 63.037033 275.816406 67 274 C 82.033913 295.96759 140.745087 381.745728 257 435 C 359.01651 430.648926 256 371 256 371 Z"/>
    <path id="Right-arm" fill="#c46b25" fill-rule="evenodd" stroke="none" d="M 980.135742 299.843536 C 980.135742 299.843536 1048.400513 255.182495 1077.904663 141.646729 C 1037.247314 117.734741 1051.564331 85.459656 1055.689697 79.104797 C 1056.026245 78.586365 1060.155273 69.498474 1071.791504 69.068298 C 1085.248657 68.570801 1086.400513 69.344482 1097.696411 74.161255 C 1107.422852 41.289673 1131.180786 36.690735 1144.095581 40.395752 C 1154.605469 43.410767 1175.887695 51.93396 1163.470581 95.392212 C 1199.297485 105.626465 1195.833984 119.955078 1195.211914 124.794312 C 1194.216553 132.53833 1182.786743 153.478027 1167.249146 158.247009 C 1157.65918 161.19043 1145.5448 162.240906 1141.267212 161.399902 C 1131.777344 186.270264 1094.714478 283.384766 994.104919 362.308441 C 893.891724 381.894501 980.135742 299.843536 980.135742 299.843536 Z"/>
    <path id="Dough" fill="#c46b25" fill-rule="evenodd" stroke="none" d="M 990 477 C 990 326.226257 826.136169 204 624 204 C 421.86377 204 258 326.226257 258 477 C 258 627.773743 421.86377 750 624 750 C 826.136169 750 990 627.773743 990 477 Z"/>
    <path id="Dough-shadow-light" fill="#df812a" fill-rule="evenodd" stroke="none" d="M 260 455 C 260 455 244.96936 527.870483 296 600 C 351.676514 678.696289 463.795563 765.782837 676 747 C 674.796814 723.452637 668.6875 722.213928 659 715 C 621.414856 687.011719 576.858398 703.719482 531 645 C 511.45166 645.273193 399.055908 671.419434 353 545 C 295.948883 538.839844 260 455 260 455 Z"/>
    <path id="Dough-top" fill="#4e1210" fill-rule="evenodd" stroke="none" d="M 600 101 C 611.00061 100.298218 881.971985 82.937378 975 293 C 975 293 1009.714478 408.763123 989 461 C 976.407043 492.756409 942.833252 513.384888 906 527 C 901.921631 528.507568 893.912415 564.078552 881 581 C 876.708984 586.623291 862.072937 605.494385 839 616 C 817.426819 625.822754 801.206543 630.220093 748 625 C 715.725647 621.833618 690.261292 674.459473 640 680 C 591.589294 685.336487 569.299438 666.744141 519 633 C 491.435516 614.507935 461.241547 644.825623 397 612 C 374.948486 600.7323 351.694946 556.858765 338 525 C 311.708771 521.342163 258.840912 489.829346 256 451 C 251.762894 393.087769 216.552811 132.735779 600 101"/>
    <path id="Glaze" fill="#eaeaea" fill-rule="evenodd" stroke="none" d="M 617 653 C 660.669434 657.653687 687.348083 616.273193 701 607 C 734.742493 584.080078 759.75946 589.007446 783 587 C 801.75769 585.379761 847.786499 595.202271 860 548 C 877.940125 478.665771 925.692322 485.657654 957 455 C 1001.248413 411.670288 998.351624 343.390564 976 292 C 967.855896 273.275146 936.415649 172.708374 773 120 C 617.352478 69.79718 412.45816 112.420898 317 212 C 220.405624 312.764343 236.612656 484.319031 341 501 C 392.936554 509.299377 365.351349 591.146606 437 602 C 466.558563 606.477539 496.757324 590.919739 529 602 C 568.407654 615.542542 583.287415 649.40741 617 653 Z"/>
    <path id="Mouth" fill="#000000" fill-rule="evenodd" stroke="none" d="M 540 397 C 557.883179 393.443787 654.597046 384.509766 718 376 C 773.617432 368.535156 752.100952 435.422913 713 449 C 700.242554 453.42981 603.734192 473.036621 560 465 C 489.568451 452.057434 517.140503 401.545776 540 397 Z"/>
    <path id="Tongue" fill="#b2081a" fill-rule="evenodd" stroke="none" d="M 595 467 C 595 467 617.490845 466.023438 645 463 C 677.244324 459.456116 696 453 696 453 C 696 453 682.499634 438.106628 648 441 C 610.214844 444.168884 595 467 595 467 Z"/>
    <path id="Right-eye" fill="#000000" fill-rule="evenodd" stroke="none" d="M 800 310 C 800 286.25177 780.972107 267 757.5 267 C 734.027893 267 715 286.25177 715 310 C 715 333.74823 734.027893 353 757.5 353 C 780.972107 353 800 333.74823 800 310 Z"/>
    <path id="Right-eye-highlight" fill="#ffffff" fill-rule="evenodd" stroke="none" d="M 764 304 C 764 291.297455 754.821838 281 743.5 281 C 732.178162 281 723 291.297455 723 304 C 723 316.702545 732.178162 327 743.5 327 C 754.821838 327 764 316.702545 764 304 Z"/>
    <path id="Left-eye" fill="#000000" fill-rule="evenodd" stroke="none" d="M 515 341 C 515 316.699463 495.300537 297 471 297 C 446.699463 297 427 316.699463 427 341 C 427 365.300537 446.699463 385 471 385 C 495.300537 385 515 365.300537 515 341 Z"/>
    <path id="Lefy-eye-highlight" fill="#ffffff" fill-rule="evenodd" stroke="none" d="M 481 331.5 C 481 317.416748 471.150269 306 459 306 C 446.849731 306 437 317.416748 437 331.5 C 437 345.583252 446.849731 357 459 357 C 471.150269 357 481 345.583252 481 331.5 Z"/>
    <path id="Right-eyebrow" fill="#000000" fill-rule="evenodd" stroke="none" d="M 716 212 C 717.072144 211.061218 726.504028 195.989563 744 194 C 758.484741 192.352844 773.649902 206.138367 780 204 C 786.153198 201.927917 780.25647 194.875671 778 193 C 775.652954 191.049011 735.241455 167.637207 710 207 C 705.676758 213.741882 713.521484 214.170227 716 212 Z"/>
    <path id="Path" fill="#000000" fill-rule="evenodd" stroke="none" d="M 421 254 C 422.946838 248.76886 436.691284 209.741577 484 236 C 492.867859 240.922058 493.327118 232.437256 492 231 C 471.814972 209.139832 418.855286 216.962952 416 249 C 415.057251 259.577881 420.358368 255.72406 421 254 Z"/>
    <path id="Right-cheek" fill="#b2081a" fill-rule="evenodd" stroke="none" d="M 898 405.5 C 893.758667 387.280701 873.248291 360.779114 843 358 C 813.77655 355.315063 788.831665 378.776855 787 405.5 C 785.040649 434.085632 811.633484 452.745239 842 452 C 871.468079 451.276794 904.073181 431.588257 898 405.5 Z"/>
    <path id="Left-cheek" fill="#b2081a" fill-rule="evenodd" stroke="none" d="M 488 455 C 487.552246 429.178589 463.372589 405.431824 433 405 C 404.053986 404.58844 379.442383 426.529602 378 453 C 375.7742 493.847778 402.739777 503.645691 433 501 C 458.272064 498.790405 488.459625 481.505615 488 455 Z"/>
</svg>
