<?xml version="1.0" encoding="UTF-8"?>
<!-- Generated by Pixelmator Pro 3.2.3 -->
<svg width="1200" height="1200" viewBox="0 0 1200 1200" xmlns="http://www.w3.org/2000/svg" xmlns:xlink="http://www.w3.org/1999/xlink">
    <path id="Left-leg" fill="#c46b25" fill-rule="evenodd" stroke="none" d="M 100 798 C 100 798 134.95311 795.511841 157 864 C 225.344269 868.657837 244.694534 878.187012 322 846 C 399.67807 813.657837 392.163025 871.722168 364 885 C 333.871033 899.204712 274.59198 932.148315 171 919 C 163.822449 960.818726 138 949 138 949 C 138 949 86.645393 927.582214 77 835 C 77.964523 793.104675 100 798 100 798 Z"/>
    <path id="Right-leg" fill="#c46b25" fill-rule="evenodd" stroke="none" d="M 1135.691162 797.158936 C 1135.691162 797.158936 1100.991333 792.276733 1074.294067 859.089478 C 1005.79126 859.043762 985.832336 867.221924 910.919312 829.802917 C 835.645203 792.203613 839.155762 850.646912 866.340637 865.827148 C 895.423218 882.067017 952.300415 919.003052 1056.550659 912.998474 C 1060.839966 955.211365 1087.412964 945.193481 1087.412964 945.193481 C 1087.412964 945.193481 1140.116943 927.352295 1156.096436 835.650818 C 1158.010742 793.788147 1135.691162 797.158936 1135.691162 797.158936 Z"/>
    <path id="Left-arm" fill="#c46b25" fill-rule="evenodd" stroke="none" d="M 256 582 C 256 582 179.195053 554.510254 124 451 C 157.951355 418.256897 136.494995 390.216125 131 385 C 130.551712 384.574463 124.415146 376.70166 113 379 C 99.79863 381.657959 98.859215 382.679199 89 390 C 71.86808 360.307556 47.693001 361.382263 36 368 C 26.484468 373.385376 7.780151 386.641602 30 426 C -2.447587 444.315613 4.265376 457.439697 6 462 C 8.77582 469.297607 24.778418 486.990234 41 488 C 51.012096 488.62323 63.037033 486.816406 67 485 C 82.033913 506.96759 140.745087 592.745728 257 646 C 359.01651 641.648926 256 582 256 582 Z"/>
    <path id="Right-arm" fill="#c46b25" fill-rule="evenodd" stroke="none" d="M 980.135742 510.843567 C 980.135742 510.843567 1048.400513 466.182495 1077.904663 352.646729 C 1037.247314 328.734741 1051.564331 296.459656 1055.689697 290.104797 C 1056.026245 289.586365 1060.155273 280.498474 1071.791504 280.068298 C 1085.248657 279.570801 1086.400513 280.344482 1097.696411 285.161255 C 1107.422852 252.289673 1131.180786 247.690735 1144.095581 251.395752 C 1154.605469 254.410767 1175.887695 262.93396 1163.470581 306.392212 C 1199.297485 316.626465 1195.833984 330.955078 1195.211914 335.794312 C 1194.216553 343.53833 1182.786743 364.478027 1167.249146 369.247009 C 1157.65918 372.19043 1145.5448 373.240906 1141.267212 372.399902 C 1131.777344 397.270264 1094.714478 494.384766 994.104919 573.308472 C 893.891724 592.89447 980.135742 510.843567 980.135742 510.843567 Z"/>
    <path id="Dough" fill="#c46b25" fill-rule="evenodd" stroke="none" d="M 990 688 C 990 537.226257 826.136169 415 624 415 C 421.86377 415 258 537.226257 258 688 C 258 838.773743 421.86377 961 624 961 C 826.136169 961 990 838.773743 990 688 Z"/>
    <path id="Dough-shadow-light" fill="#df812a" fill-rule="evenodd" stroke="none" d="M 260 666 C 260 666 244.96936 738.870483 296 811 C 351.676514 889.696289 463.795563 976.782837 676 958 C 674.796814 934.452637 668.6875 933.213928 659 926 C 621.414856 898.011719 576.858398 914.719482 531 856 C 511.45166 856.273193 399.055908 882.419434 353 756 C 295.948883 749.839844 260 666 260 666 Z"/>
    <path id="Dough-top" fill="#4e1210" fill-rule="evenodd" stroke="none" d="M 600 312 C 611.00061 311.298218 881.971985 293.937378 975 504 C 975 504 1009.714478 619.763123 989 672 C 976.407043 703.756409 942.833252 724.384888 906 738 C 901.921631 739.507568 893.912415 775.078552 881 792 C 876.708984 797.623291 862.072937 816.494385 839 827 C 817.426819 836.822754 801.206543 841.220093 748 836 C 715.725647 832.833618 690.261292 885.459473 640 891 C 591.589294 896.336487 569.299438 877.744141 519 844 C 491.435516 825.507935 461.241547 855.825623 397 823 C 374.948486 811.7323 351.694946 767.858765 338 736 C 311.708771 732.342163 258.840912 700.829346 256 662 C 251.762894 604.087769 216.552811 343.735779 600 312"/>
    <path id="Glaze" fill="#eaeaea" fill-rule="evenodd" stroke="none" d="M 617 864 C 660.669434 868.653687 687.348083 827.273193 701 818 C 734.742493 795.080078 759.75946 800.007446 783 798 C 801.75769 796.379761 847.786499 806.202271 860 759 C 877.940125 689.665771 925.692322 696.657654 957 666 C 1001.248413 622.670288 998.351624 554.390564 976 503 C 967.855896 484.275146 936.415649 383.708374 773 331 C 617.352478 280.79718 412.45816 323.420898 317 423 C 220.405624 523.764343 236.612656 695.319031 341 712 C 392.936554 720.299377 365.351349 802.146606 437 813 C 466.558563 817.477539 496.757324 801.919739 529 813 C 568.407654 826.542542 583.287415 860.40741 617 864 Z"/>
    <path id="Mouth" fill="#000000" fill-rule="evenodd" stroke="none" d="M 540 608 C 557.883179 604.443787 654.597046 595.509766 718 587 C 773.617432 579.535156 752.100952 646.422913 713 660 C 700.242554 664.42981 603.734192 684.036621 560 676 C 489.568451 663.057434 517.140503 612.545776 540 608 Z"/>
    <path id="Tongue" fill="#b2081a" fill-rule="evenodd" stroke="none" d="M 595 678 C 595 678 617.490845 677.023438 645 674 C 677.244324 670.456116 696 664 696 664 C 696 664 682.499634 649.106628 648 652 C 610.214844 655.168884 595 678 595 678 Z"/>
    <path id="Right-eye" fill="#000000" fill-rule="evenodd" stroke="none" d="M 800 521 C 800 497.25177 780.972107 478 757.5 478 C 734.027893 478 715 497.25177 715 521 C 715 544.74823 734.027893 564 757.5 564 C 780.972107 564 800 544.74823 800 521 Z"/>
    <path id="Right-eye-highlight" fill="#ffffff" fill-rule="evenodd" stroke="none" d="M 764 515 C 764 502.297424 754.821838 492 743.5 492 C 732.178162 492 723 502.297424 723 515 C 723 527.702576 732.178162 538 743.5 538 C 754.821838 538 764 527.702576 764 515 Z"/>
    <path id="Left-eye" fill="#000000" fill-rule="evenodd" stroke="none" d="M 515 552 C 515 527.699463 495.300537 508 471 508 C 446.699463 508 427 527.699463 427 552 C 427 576.300537 446.699463 596 471 596 C 495.300537 596 515 576.300537 515 552 Z"/>
    <path id="Lefy-eye-highlight" fill="#ffffff" fill-rule="evenodd" stroke="none" d="M 481 542.5 C 481 528.416748 471.150269 517 459 517 C 446.849731 517 437 528.416748 437 542.5 C 437 556.583252 446.849731 568 459 568 C 471.150269 568 481 556.583252 481 542.5 Z"/>
    <path id="Right-eyebrow" fill="#000000" fill-rule="evenodd" stroke="none" d="M 716 423 C 717.072144 422.061218 726.504028 406.989563 744 405 C 758.484741 403.352844 773.649902 417.138367 780 415 C 786.153198 412.927917 780.25647 405.875671 778 404 C 775.652954 402.049011 735.241455 378.637207 710 418 C 705.676758 424.741882 713.521484 425.170227 716 423 Z"/>
    <path id="Path" fill="#000000" fill-rule="evenodd" stroke="none" d="M 421 465 C 422.946838 459.76886 436.691284 420.741577 484 447 C 492.867859 451.922058 493.327118 443.437256 492 442 C 471.814972 420.139832 418.855286 427.962952 416 460 C 415.057251 470.577881 420.358368 466.72406 421 465 Z"/>
    <path id="Right-cheek" fill="#b2081a" fill-rule="evenodd" stroke="none" d="M 898 616.5 C 893.758667 598.280701 873.248291 571.779114 843 569 C 813.77655 566.315063 788.831665 589.776855 787 616.5 C 785.040649 645.085632 811.633484 663.745239 842 663 C 871.468079 662.276794 904.073181 642.588257 898 616.5 Z"/>
    <path id="Left-cheek" fill="#b2081a" fill-rule="evenodd" stroke="none" d="M 488 666 C 487.552246 640.178589 463.372589 616.431824 433 616 C 404.053986 615.58844 379.442383 637.529602 378 664 C 375.7742 704.847778 402.739777 714.645691 433 712 C 458.272064 709.790405 488.459625 692.505615 488 666 Z"/>
</svg>
